<svg id="Group_1131" data-name="Group 1131" xmlns="http://www.w3.org/2000/svg" xmlns:xlink="http://www.w3.org/1999/xlink" width="432" height="24.668" viewBox="0 0 432 24.668">
  <defs>
    <clipPath id="clip-path">
      <rect id="Rectangle_38" data-name="Rectangle 38" width="432" height="24.668" fill="none"/>
    </clipPath>
  </defs>
  <g id="Group_963" data-name="Group 963" clip-path="url(#clip-path)">
    <path id="Path_59" data-name="Path 59" d="M280.722,21.586c-3-2.279-6.627-.21-8.75,1.463a13,13,0,0,1-7.565,2.893c-9.733.334-10.867-10.65-10.867-10.65s6.227,10.4,13.591,6.786a11.344,11.344,0,0,0,6.035-8.884,6.439,6.439,0,0,1-.376,6.154c1.872-.879,4.951-1.712,7.932,2.236" transform="translate(-36.456 -12.579)" fill="#1a1a1a"/>
    <path id="Path_60" data-name="Path 60" d="M216.89,21.586c3-2.279,6.627-.21,8.75,1.463a13,13,0,0,0,7.565,2.893c9.733.334,10.867-10.65,10.867-10.65s-6.227,10.4-13.591,6.786a11.344,11.344,0,0,1-6.035-8.884,6.437,6.437,0,0,0,.377,6.154c-1.873-.879-4.951-1.712-7.933,2.236" transform="translate(-31.186 -12.579)" fill="#1a1a1a"/>
    <path id="Path_61" data-name="Path 61" d="M258.684,16.177c-3.44.661-6.577-3.582-8.5-7-.229-.413-.441-.813-.634-1.184-.184.372-.4.771-.626,1.171-1.922,3.417-5.059,7.674-8.5,7.013,2.686,4.161,6.861,2,9.124-4.781,2.272,6.78,6.447,8.942,9.133,4.781" transform="translate(-34.57 -0.47)" fill="#1a1a1a"/>
    <path id="Path_62" data-name="Path 62" d="M249.519,1.158c-.394,2.072,1.336,4.868,1.336,4.868s1.73-2.8,1.335-4.868a1.349,1.349,0,0,0-2.671,0" transform="translate(-35.869 18.642)" fill="#1a1a1a"/>
    <path id="Path_63" data-name="Path 63" d="M285.3,8.945a279.545,279.545,0,0,1,59.677-1.567,215.823,215.823,0,0,1,23.882,3.071,204.241,204.241,0,0,1,24.574,6.673c13.855,4.451,28.567,7.729,43.206,7.092,5-.218,11.02-.638,15.565-3.032.731-.385,1.381.723.648,1.109-3.517,1.853-7.9,2.445-11.782,2.872-12.561,1.381-25.449-.672-37.6-3.795-8.7-2.236-17.074-5.521-25.791-7.686a186.344,186.344,0,0,0-24.857-4.3,286.57,286.57,0,0,0-44.11-1.139c-7.649.355-15.605.886-23.071,1.941-.808.115-1.158-1.122-.342-1.238" transform="translate(-40.955 -6.489)" fill="#1a1a1a"/>
    <path id="Path_64" data-name="Path 64" d="M190.638,10.146A278.69,278.69,0,0,0,129.353,8.78,204.536,204.536,0,0,0,104.472,12.3C95.887,14.1,87.738,17.01,79.356,19.511,66.221,23.43,52.283,26.223,38.507,25.4c-4.9-.291-10.633-.807-15.08-3.148-.731-.385-.083-1.495.648-1.11,3.624,1.909,8.3,2.45,12.3,2.814C49.7,25.174,63.261,22.712,76.049,19.13c8.537-2.391,16.8-5.537,25.462-7.494a197.555,197.555,0,0,1,23.917-3.782,290.79,290.79,0,0,1,43.6-.862c7.323.372,14.685.889,21.951,1.916.815.115.468,1.353-.342,1.238" transform="translate(-3.322 -6.494)" fill="#1a1a1a"/>
    <path id="Path_65" data-name="Path 65" d="M10.169,19.878c-.665-3.421,3.6-6.539,7.041-8.45.415-.229.817-.439,1.192-.631-.375-.183-.777-.394-1.179-.622C13.786,8.263,9.5,5.145,10.169,1.725,5.984,4.395,8.16,8.546,14.978,10.8c-6.818,2.259-8.994,6.41-4.808,9.081" transform="translate(-1.156 3.314)" fill="#1a1a1a"/>
    <path id="Path_66" data-name="Path 66" d="M4.9,10.766C2.812,10.374,0,12.094,0,12.094s2.812,1.719,4.9,1.327a1.339,1.339,0,0,0,0-2.655" transform="translate(0 2.021)" fill="#1a1a1a"/>
    <path id="Path_67" data-name="Path 67" d="M492.638,19.878c.665-3.421-3.6-6.539-7.041-8.45-.415-.229-.817-.439-1.191-.631.374-.183.776-.394,1.177-.622,3.438-1.911,7.72-5.029,7.054-8.449,4.185,2.67,2.01,6.821-4.809,9.072,6.818,2.259,8.994,6.41,4.809,9.081" transform="translate(-69.651 3.314)" fill="#1a1a1a"/>
    <path id="Path_68" data-name="Path 68" d="M498.632,10.766c2.084-.392,4.9,1.328,4.9,1.328s-2.812,1.719-4.9,1.327a1.339,1.339,0,0,1,0-2.655" transform="translate(-71.529 2.021)" fill="#1a1a1a"/>
  </g>
</svg>
