<svg id="Group_2" data-name="Group 2" xmlns="http://www.w3.org/2000/svg" xmlns:xlink="http://www.w3.org/1999/xlink" width="57.721" height="63.678" viewBox="0 0 57.721 63.678">
  <defs>
    <clipPath id="clip-path">
      <rect id="Rectangle_2" data-name="Rectangle 2" width="57.721" height="63.678" fill="none"/>
    </clipPath>
  </defs>
  <g id="Group_1" data-name="Group 1" transform="translate(0 0)" clip-path="url(#clip-path)">
    <path id="Path_5" data-name="Path 5" d="M12.991,348.863a16.012,16.012,0,0,0-4.234,2.207,5.533,5.533,0,0,0-1.918,4.042,5.008,5.008,0,0,0,3.493,2.79c4.8.856,9.2-.845,13.462-2.879,5-2.382,9.972-4.857,15.045-7.091a47.883,47.883,0,0,1,6.687-1.982,8.994,8.994,0,0,1,10.2,2.976c2.1,2.621,2.674,7.831,1.08,10.352-2.345,3.709-6.081,4.536-10.152,4.482a13.546,13.546,0,0,1-2.209-.443c2.186-1.42,4.172-2.54,5.951-3.912,1.872-1.451,3.334-3.68,1.723-5.7a7.227,7.227,0,0,0-5.363-1.985,20.78,20.78,0,0,0-6.94,2.11c-6.711,2.934-13.235,6.328-20.069,8.936a32.622,32.622,0,0,1-11.355,1.915c-5.02.01-8.485-3.587-8.389-7.653a9.251,9.251,0,0,1,9.163-9.107,33.469,33.469,0,0,1,3.78.346l.044.6" transform="translate(0 -301.004)" fill="#12100e"/>
    <path id="Path_6" data-name="Path 6" d="M124.85,152.143c3.641-8.415,2.671-14.828-2.559-19.267a12.5,12.5,0,0,0-15.185-.938c-5.679,3.684-7.292,10-4.738,18.567-5.875-5.011-5.816-15.29.114-21.479a16.238,16.238,0,0,1,23.315-.318,15.826,15.826,0,0,1-.953,23.439" transform="translate(-85.385 -107.972)" fill="#12100e"/>
    <path id="Path_7" data-name="Path 7" d="M163.9,11.816a7.046,7.046,0,0,1,1.248-9.844,7.878,7.878,0,0,1,10.607.159c3.112,2.844,3.366,6.959.654,10.585.211-6.57-1.661-9.566-6.033-9.645C166.2,2.994,164.2,5.7,163.9,11.816" transform="translate(-141.53 0)" fill="#12100e"/>
  </g>
</svg>
